<?xml version="1.0" encoding="utf-8"?>
<!-- Generator: Adobe Illustrator 24.3.0, SVG Export Plug-In . SVG Version: 6.00 Build 0)  -->
<svg version="1.1" id="Layer_1" xmlns="http://www.w3.org/2000/svg" xmlns:xlink="http://www.w3.org/1999/xlink" x="0px" y="0px"
	 viewBox="0 0 416.8 50" style="enable-background:new 0 0 416.8 50;" xml:space="preserve">
<style type="text/css">
	.st0{fill:#F2ECCB;}
	.st1{fill:#7E7F73;}
</style>
<g>
	<path class="st0" d="M177.2,14.5h2.9V5.9h16.5v8.6h5v9.9h-5v11.2c0,2.6,0.8,3.5,3.7,3.5h1.4v9c-1.8,0.5-4.7,1-8.2,1
		c-8,0-13.4-2.1-13.4-10.5V24.4h-2.9V14.5z"/>
	<path class="st0" d="M201.8,31.6c0-10.8,8-17.7,19.7-17.7s19.7,7,19.7,17.7s-8,17.4-19.7,17.4S201.8,42.3,201.8,31.6 M224.4,31.7
		c0-5.3-1-7.3-3-7.3s-3.1,2-3.1,7.3s1.1,7.6,3.1,7.6C223.4,39.3,224.4,37,224.4,31.7"/>
	<path class="st0" d="M241.1,31.6c0-10.8,8-17.7,19.7-17.7c11.7,0,19.7,7,19.7,17.7s-8,17.4-19.7,17.4
		C249.1,49,241.1,42.3,241.1,31.6 M263.8,31.7c0-5.3-1-7.3-3-7.3s-3.1,2-3.1,7.3s1.1,7.6,3.1,7.6C262.7,39.3,263.8,37,263.8,31.7"/>
	<path class="st0" d="M280.9,39h1.3c0.6,0,1.5-1,1.5-1.5V25.9c0-0.6-1-1.5-1.5-1.5h-1.4v-9.9h16.3c1.4,0,2.4,1.1,2.9,5.2
		c2.6-3.3,5.4-5.8,11-5.8c3.8,0,7.6,1.4,8.5,5.8c2.6-3.3,5.4-5.8,11-5.8c4.3,0,8.7,1.9,8.7,7.8v15.8c0,0.6,1,1.5,1.5,1.5h0.6v9.3
		h-18.6V28.2c0-2-0.2-2.4-3-2.4V39h2v9.3h-18.4V28.2c0-2-0.2-2.4-3-2.4V39h2v9.3h-21.2V39H280.9z"/>
	<path class="st0" d="M358.3,44.6c-1,2-2.2,3.7-3.3,3.7h-11.7V14.7c0-0.6-1-1.5-1.5-1.5h-1.4V3.6h17.2c1.3,0,2.2,1.3,2.2,3.1v11.6
		c2.4-2.6,5.2-4.5,9.6-4.5c6.4,0,12.4,3.4,12.4,16.3c0,12.6-5.4,18.8-14.2,18.8C362.9,49,360,47.2,358.3,44.6 M359.8,25.7v13
		c0.4,0.2,0.9,0.3,1.5,0.3c2.2,0,3.8-1.4,3.8-7.3c0-5-1.6-6-3.8-6C360.8,25.6,360.3,25.6,359.8,25.7"/>
	<path class="st0" d="M383.2,46.6v-9.9h7.9c1,1.8,3.2,2.9,5.7,2.9c1.7,0,3.2-0.4,3.2-1.7c0-1.1-1-1.3-4.8-1.7
		c-7.4-0.7-12.3-2.6-12.3-10.8c0-8.4,6.5-11.7,16.7-11.7c5.9,0,10.3,0.6,13.9,1.7V25h-7.8c-1-1.3-2.7-2.4-5.3-2.4
		c-2.3,0-3,0.6-3,1.4c0,0.9,1,1.3,4.1,1.6c8.5,0.9,13.4,2.1,13.4,10.5c0,8.5-5,12.6-17.3,12.6C390.8,48.9,386.3,47.9,383.2,46.6"/>
	<path class="st1" d="M19.2,44.6c-1,2-2.2,3.7-3.3,3.7H4.2V14.7c0-0.6-1-1.5-1.5-1.5H1.3V3.6h17.2c1.3,0,2.2,1.3,2.2,3.1v11.6
		c2.4-2.6,5.2-4.5,9.6-4.5c6.4,0,12.4,3.4,12.4,16.3c0,12.6-5.4,18.8-14.2,18.8C23.8,49,20.9,47.2,19.2,44.6 M20.7,25.7v13
		c0.4,0.2,0.9,0.3,1.5,0.3c2.2,0,3.8-1.4,3.8-7.3c0-5-1.6-6-3.8-6C21.7,25.6,21.2,25.6,20.7,25.7"/>
	<path class="st1" d="M43.6,39h1.3c0.6,0,1.5-1,1.5-1.5V25.9c0-0.6-1-1.5-1.5-1.5h-1.4v-9.9h16.3c1.3,0,2.4,1.3,2.7,5.1
		c2-3.1,4.8-5.3,8.9-5.3c0.8,0,1.5,0.1,2,0.2V27h-1.3c-4,0-7.5,0.3-9.4,0.6V39h3.1v9.3H43.4V39H43.6z"/>
	<path class="st1" d="M74,39h1.3c0.6,0,1.5-1,1.5-1.5V25.9c0-0.6-1-1.5-1.5-1.5h-1.4v-9.9h17.2c1.3,0,2.2,1.3,2.2,3.1v19.9
		c0,0.6,1,1.5,1.5,1.5h1.3v9.3H74V39z M77.8,7.3c0-4.1,2.9-6.6,7.3-6.6s7.3,2.5,7.3,6.6s-2.9,6.5-7.3,6.5S77.8,11.4,77.8,7.3"/>
	<path class="st1" d="M96.6,39.4c0-7.5,5-10.7,13-10.7c2.4,0,4,0.1,5.8,0.3v-1.6c0-1.7-1-2.6-3.8-2.6c-3.2,0-4.8,1.1-6,2.2H99V16
		c3.8-1.2,9.7-2.2,16.8-2.2c11.7,0,16.1,3.9,16.1,11.9v11.8c0,0.6,1,1.5,1.5,1.5h0.6v7.8c-2.4,1.3-5.4,2.1-9.3,2.1
		c-4.5,0-6.9-1.5-8.2-4c-2.3,2.6-5.5,3.8-9.7,3.8C101.6,48.8,96.6,45.9,96.6,39.4 M115.3,39.6V35c-0.5-0.1-1.1-0.2-1.5-0.2
		c-1.4,0-2,0.9-2,2.9c0,1.9,1,2.4,2,2.4C114.4,40.1,114.8,39.9,115.3,39.6"/>
	<path class="st1" d="M135.1,39h1.3c0.6,0,1.5-1,1.5-1.5V25.9c0-0.6-1-1.5-1.5-1.5H135v-9.9h16.3c1.4,0,2.4,1,2.8,4.9
		c2.8-3.1,6.5-5.6,11.9-5.6c4.3,0,8.7,1.9,8.7,7.8v15.8c0,0.6,1,1.5,1.5,1.5h0.6v9.3h-18.6V28.1c0-2-1.1-2.4-3.9-2.4V39h2.9v9.3
		h-22.1V39z"/>
</g>
</svg>
